<svg version="1.1" id="Layer_1" xmlns="http://www.w3.org/2000/svg" xmlns:xlink="http://www.w3.org/1999/xlink" x="0px" y="0px"
	 width="1000px" height="1020px" viewBox="0 0 1000 1020" enable-background="new 0 0 1000 1020" xml:space="preserve">
<path fill="#FFFFFF" d="M932.98-0.538H66.374c-36.844,0-66.696,32.2-66.696,71.917V765.75c0,39.721,29.853,71.92,66.696,71.92
	h368.264l-9.8,182.029l205.44-182.029H932.98c36.841,0,66.696-32.199,66.696-71.92V71.379
	C999.677,31.662,969.821-0.538,932.98-0.538z M548.433,645.171H472.62V288.367h75.813V645.171z M542.147,224.338
	c-7.436,7.425-17.803,11.133-31.144,11.133c-13.755,0-24.346-3.708-31.774-11.133c-7.411-7.425-11.13-17.571-11.13-30.486
	c0-13.552,3.719-23.977,11.13-31.3c7.429-7.303,18.02-10.958,31.774-10.958c13.341,0,23.708,3.655,31.144,10.958
	c7.408,7.323,11.125,17.748,11.125,31.3C553.272,206.767,549.556,216.913,542.147,224.338z"/>
</svg>
