<svg version="1" xmlns="http://www.w3.org/2000/svg" width="150" height="150" viewBox="0 0 150 150"><g fill="#FFF"><path d="M38.088 16.185s-6.74 22.865 27.816 67.042c0 0 .81-11.924-4.96-23.323 0 0-1.645 3.575-2.586 3.685-.94.11 1.7-2.972.337-5.957-1.364-2.986-17.87-30.998-20.607-41.448z"/><path d="M37.888 16.024s-3.333 15.21 8.214 40.532c0 0-6.202-4.617-10.544-10.762 0 0 2.018 6.935 10.94 11.473 0 0 7.72 15.193 17.996 28.27 0 0-34.692-20.475-30.35-41.965 0 0-5.686-9.464-1.905-17.3 0 0 1.326 2.076 1.825 1.945 0 0-1.154-2.264-.983-3.854.17-1.592 3.75-7.528 4.806-8.34z"/><path d="M64.883 86.122s-9.96-4.638-13.114-8.65c0 0 2.248 7.392 11.246 10.372 0 0 .963.422.302.92-.662.498-4.61 1.59-6.532-.41 0 0 .057 2.973 9.526 4.283 0 0 5.384 1.185-.526 1.137 0 0-4.524-.178.745 1.058 5.273 1.234 8 3.835 8 3.835s-9.517-12.298-9.647-12.545zM66.922 76.818s1.137-1.08 2.84 5.492c2.042 7.87 2.512 2.9 2.164.696-.35-2.207.64-.602.64-.602 2.01 2.833 1.85 6.207 1.817 6.532-.032.327-1.046 3.648-1.046 3.648l-7.116-8.97c1.097-1.93.8-6.92.8-6.92"/><path d="M52.13 66.854s12.5 20.632 31.515 41.623c0 0 1.464-1.71-1.283-4.756-17.06-18.92-28.644-36.986-28.644-36.986l-.344-.532M52.13 66.854C41.52 48.588 40.258 38.62 40.258 38.62S42.775 48.87 53.374 66.2"/></g><g fill="#FFF"><path d="M73.748 99.687l-.06-.074-.082.074h.142z"/><path d="M74.736 23.446c-10.336 0-20.06 2.622-28.544 7.235 3.495 6.956 7.594 14.38 10.368 19.378h27.668a2.146 2.146 0 0 1 0 4.292h-25.29c.68 1.238 1.146 2.11 1.35 2.554l.055.125.53-1.15 1.37 2.71h21.986a2.146 2.146 0 0 1 0 4.292H64.19a48.673 48.673 0 0 1 1.91 5.982h38.704a2.145 2.145 0 0 1 0 4.29h-37.82c.106.642.196 1.262.273 1.86.156.01.313.028.468.072.81.232 1.68.854 2.643 3.303h34.25a2.147 2.147 0 0 1 0 4.29H74.78c1.636 3.135 1.347 6.39 1.343 6.426a2.474 2.474 0 0 0-.006.056h28.497a2.146 2.146 0 0 1 0 4.293H75.804c1.694 2.04 3.47 4.125 5.315 6.23h23.497c1.184 0 2.146.96 2.146 2.145a2.148 2.148 0 0 1-2.146 2.147H84.754c2.11 3.345.31 5.532.22 5.636l-.934 1.092h20.577a2.147 2.147 0 0 1 0 4.293h-64.38a2.146 2.146 0 0 1 0-4.293h43.068l-.957-1.055a273.016 273.016 0 0 1-4.994-5.673H40.236a2.146 2.146 0 0 1 0-4.293h32.792c-.79-.624-3.132-2.27-6.896-3.15-2.254-.528-3.883-.91-3.903-2.55-.002-.107.006-.22.027-.335-.248-.062-.47-.13-.703-.193H40.236a2.146 2.146 0 0 1 0-4.29H55.18c-.105-.322-.14-.592-.144-.78l-.06-3.204a19.277 19.277 0 0 1-2.294-2.498H40.236a2.146 2.146 0 0 1 0-4.292h10a8.51 8.51 0 0 1-.14-.407l-.342-1.12a90.872 90.872 0 0 1-3.274-2.988c-.25-.24-.48-.48-.723-.72h-5.333a2.145 2.145 0 0 1 0-4.29h1.31c-7.48-8.694-10.73-17.234-9.425-24.99a26.33 26.33 0 0 1-.893-1.845C21.19 52.766 14.902 67.284 14.902 83.28c0 33.044 26.79 59.833 59.834 59.833 33.045 0 59.834-26.79 59.834-59.834s-26.79-59.834-59.834-59.834zm32.027 38.87a2.147 2.147 0 0 1-2.146 2.145h-10.11a2.145 2.145 0 0 1-2.147-2.145v-10.11c0-1.186.96-2.146 2.146-2.146h10.11c1.185 0 2.147.96 2.147 2.145v10.11z"/></g></svg>
